<?xml version="1.0" standalone="no"?>
<!DOCTYPE svg PUBLIC "-//W3C//DTD SVG 20010904//EN"
 "http://www.w3.org/TR/2001/REC-SVG-20010904/DTD/svg10.dtd">
<svg version="1.0" xmlns="http://www.w3.org/2000/svg"
 width="200.000000pt" height="200.000000pt" viewBox="0 0 200.000000 200.000000"
 preserveAspectRatio="xMidYMid meet">
<metadata>
Created by potrace 1.11, written by Peter Selinger 2001-2013
</metadata>
<g transform="translate(0.000000,200.000000) scale(0.100000,-0.100000)"
fill="#000000" stroke="none">
<path d="M1315 1982 c-122 -46 -163 -69 -235 -136 -67 -61 -65 -48 3 18 37 37
67 69 67 72 0 5 -74 -1 -120 -10 -8 -1 -33 -6 -55 -10 -87 -16 -340 -129 -415
-185 -64 -48 -127 -117 -187 -207 -60 -90 -130 -244 -119 -263 8 -13 53 1 103
32 38 24 83 81 83 105 0 18 62 173 67 168 3 -3 -9 -47 -26 -98 -17 -51 -32
-104 -35 -118 -2 -14 -11 -52 -19 -85 -9 -33 -19 -76 -22 -95 -3 -19 -12 -62
-20 -95 -8 -33 -17 -80 -19 -105 -10 -93 -17 -142 -30 -210 -10 -50 -11 -72
-3 -77 15 -9 102 90 140 159 35 63 56 78 33 24 -19 -46 -50 -91 -113 -162 -71
-82 -154 -183 -181 -220 -23 -33 -76 -164 -87 -215 l-7 -30 52 20 c62 24 69
29 50 41 -21 13 75 38 130 33 85 -7 386 -114 460 -163 21 -14 100 -46 285
-112 17 -6 37 -17 45 -23 42 -34 209 -43 297 -16 49 14 166 86 211 129 8 7 30
24 50 39 99 72 135 119 146 188 22 147 32 340 30 607 -1 234 -3 262 -27 370
-15 64 -28 128 -31 142 -8 46 -115 251 -161 310 -51 66 -87 100 -162 152 -64
44 -111 51 -178 26z m155 -31 c97 -59 182 -156 240 -271 43 -85 104 -264 125
-368 20 -101 25 -455 8 -547 -7 -33 -17 -94 -23 -135 -16 -98 -37 -177 -57
-207 -23 -34 -100 -112 -151 -152 -60 -46 -181 -107 -230 -116 -26 -4 -42 -12
-42 -21 0 -18 0 -18 -67 13 -123 57 -193 111 -259 199 -16 21 -32 41 -35 44
-11 10 -107 216 -123 265 -31 97 -46 218 -46 372 -1 139 2 160 29 250 34 114
61 175 122 274 49 81 191 243 270 310 64 54 159 117 178 118 8 1 35 -12 61
-28z"/>
<path d="M1644 1536 c-31 -21 -97 -44 -145 -51 -24 -3 -60 -10 -79 -15 -19 -5
-60 -12 -90 -16 -57 -7 -85 -11 -85 -14 0 -1 -34 -5 -128 -15 -111 -12 -107
-7 -107 -144 0 -66 4 -122 8 -125 4 -2 28 -1 52 4 25 4 86 14 135 20 242 31
437 77 463 109 14 17 18 246 4 255 -5 3 -17 -1 -28 -8z"/>
<path d="M1637 1194 c-79 -42 -186 -65 -390 -83 -59 -6 -111 -12 -115 -15 -4
-2 -27 -5 -52 -7 -25 -1 -51 -7 -57 -12 -20 -14 -18 -236 1 -243 8 -3 50 -1
93 6 43 6 94 13 113 16 19 2 46 6 60 9 14 2 48 6 75 10 28 3 75 12 105 20 30
8 66 16 80 19 14 3 48 13 75 23 l50 19 3 119 c1 65 -1 122 -5 126 -4 4 -21 1
-36 -7z"/>
<path d="M1635 864 c-58 -30 -234 -70 -345 -79 -124 -10 -200 -19 -258 -31
-22 -4 -23 -6 -20 -132 l3 -127 30 1 c33 0 148 14 180 21 11 2 49 8 85 13 36
5 72 11 80 14 8 3 32 8 53 11 92 13 112 18 155 36 81 35 82 37 82 165 0 62 -4
115 -8 118 -5 3 -21 -2 -37 -10z"/>
</g>
</svg>
